<svg xmlns="http://www.w3.org/2000/svg" width="67" height="68" fill="none"><path stroke="#FFF" stroke-linecap="round" stroke-linejoin="round" stroke-width="4" d="M2 33.625C2 16.159 16.241 2 33.809 2c3.237 0 6.362.481 9.306 1.375"/><path fill="#FFF" fill-rule="evenodd" d="M40.654 40.43c-3.781 3.76-9.91 3.76-13.691 0a9.586 9.586 0 0 1 0-13.61c3.78-3.76 30.356-19.32 31.739-17.945 1.383 1.375-14.268 27.797-18.048 31.556Zm-6.846-9.555a2.758 2.758 0 0 0-2.766 2.75 2.758 2.758 0 0 0 2.766 2.75 2.758 2.758 0 0 0 2.766-2.75 2.758 2.758 0 0 0-2.766-2.75Z" clip-rule="evenodd"/><ellipse cx="6.149" cy="50.125" fill="#FFF" rx="2.766" ry="2.75"/><ellipse cx="17.213" cy="61.125" fill="#FFF" rx="2.766" ry="2.75"/><ellipse cx="33.808" cy="65.25" fill="#FFF" rx="2.766" ry="2.75"/><ellipse cx="50.404" cy="61.125" fill="#FFF" rx="2.766" ry="2.75"/><ellipse cx="60.085" cy="50.125" fill="#FFF" rx="2.766" ry="2.75"/><ellipse cx="64.234" cy="33.625" fill="#FFF" rx="2.766" ry="2.75"/></svg>